<?xml version="1.0" encoding="UTF-8" standalone="no"?>
<!DOCTYPE svg PUBLIC "-//W3C//DTD SVG 1.1//EN"
 "http://www.w3.org/Graphics/SVG/1.1/DTD/svg11.dtd">
<!-- Generated by graphviz version 2.28.0 (20121123.1352)
 -->
<!-- Title: ci_workflow Pages: 1 -->
<svg width="638pt" height="632pt"
 viewBox="0.00 0.00 638.00 632.00" xmlns="http://www.w3.org/2000/svg" xmlns:xlink="http://www.w3.org/1999/xlink">
<g id="graph1" class="graph" transform="scale(1 1) rotate(0) translate(4 628)">
<title>ci_workflow</title>
<polygon fill="white" stroke="white" points="-4,5 -4,-628 635,-628 635,5 -4,5"/>
<!-- START -->
<g id="node1" class="node"><title>START</title>
<polygon fill="none" stroke="black" points="71,-617.097 -0.0107426,-584 71,-550.903 142.011,-584 71,-617.097"/>
<polyline fill="none" stroke="black" points="10.8659,-589.069 10.8659,-578.931 "/>
<polyline fill="none" stroke="black" points="60.1234,-555.972 81.8766,-555.972 "/>
<polyline fill="none" stroke="black" points="131.134,-578.931 131.134,-589.069 "/>
<polyline fill="none" stroke="black" points="81.8766,-612.028 60.1234,-612.028 "/>
<text text-anchor="middle" x="71" y="-585.649" font-family="Arial" font-size="11.00">User writes</text>
<text text-anchor="middle" x="71" y="-573" font-family="Arial" font-size="11.00">a patch</text>
</g>
<!-- WAIT_LINT -->
<g id="node2" class="node"><title>WAIT_LINT</title>
<ellipse fill="none" stroke="black" cx="346" cy="-584" rx="40.6462" ry="40.6462"/>
<text text-anchor="middle" x="346" y="-585.649" font-family="Arial" font-size="11.00">Awaiting</text>
<text text-anchor="middle" x="346" y="-573" font-family="Arial" font-size="11.00">linting</text>
</g>
<!-- START&#45;&gt;WAIT_LINT -->
<g id="edge2" class="edge"><title>START&#45;&gt;WAIT_LINT</title>
<path fill="none" stroke="black" d="M142.304,-584C190.176,-584 252.38,-584 295.185,-584"/>
<polygon fill="black" stroke="black" points="295.358,-587.5 305.358,-584 295.358,-580.5 295.358,-587.5"/>
<text text-anchor="middle" x="200" y="-585.499" font-family="Arial" font-size="10.00">push to Gerrit</text>
</g>
<!-- LINT_CHECK -->
<g id="node5" class="node"><title>LINT_CHECK</title>
<polygon fill="none" stroke="black" points="630.012,-605.947 543.988,-605.947 543.988,-560.053 630.012,-560.053 630.012,-605.947"/>
<text text-anchor="middle" x="587" y="-590.973" font-family="Arial" font-size="11.00">linting</text>
<text text-anchor="middle" x="587" y="-578.324" font-family="Arial" font-size="11.00">+ checkstyle</text>
<text text-anchor="middle" x="587" y="-565.676" font-family="Arial" font-size="11.00">+ whitespaces</text>
</g>
<!-- WAIT_LINT&#45;&gt;LINT_CHECK -->
<g id="edge4" class="edge"><title>WAIT_LINT&#45;&gt;LINT_CHECK</title>
<path fill="none" stroke="black" d="M386.696,-586.268C416.43,-587.967 452,-590 452,-590 452,-590 526,-590 526,-590 526,-590 529.027,-589.647 533.721,-589.099"/>
<polygon fill="black" stroke="black" points="534.15,-592.573 543.677,-587.938 533.339,-585.62 534.15,-592.573"/>
<text text-anchor="middle" x="489" y="-591.499" font-family="Arial" font-size="10.00">Automatic check</text>
</g>
<!-- LINT_CHECK&#45;&gt;WAIT_LINT -->
<g id="edge6" class="edge"><title>LINT_CHECK&#45;&gt;WAIT_LINT</title>
<path fill="none" stroke="black" d="M543.677,-560.783C533.749,-555.571 526,-551.503 526,-551.503 526,-551.503 452,-551.503 452,-551.503 452,-551.503 422.38,-560.67 394.604,-569.267"/>
<polygon fill="black" stroke="black" points="393.426,-565.968 384.907,-572.268 395.495,-572.655 393.426,-565.968"/>
<text text-anchor="middle" x="489" y="-575.497" font-family="Arial" font-size="10.00">Fail:</text>
<text text-anchor="middle" x="489" y="-563.998" font-family="Arial" font-size="10.00">CR 0</text>
<text text-anchor="middle" x="489" y="-552.499" font-family="Arial" font-size="10.00">Verified &#45;1</text>
</g>
<!-- LINTED -->
<g id="node8" class="node"><title>LINTED</title>
<ellipse fill="none" stroke="black" cx="71" cy="-450" rx="40.6462" ry="40.6462"/>
<text text-anchor="middle" x="71" y="-451.649" font-family="Arial" font-size="11.00">Awaiting</text>
<text text-anchor="middle" x="71" y="-439" font-family="Arial" font-size="11.00">review</text>
</g>
<!-- LINT_CHECK&#45;&gt;LINTED -->
<g id="edge8" class="edge"><title>LINT_CHECK&#45;&gt;LINTED</title>
<path fill="none" stroke="black" d="M548.342,-560.405C536.287,-553.172 526,-547 526,-547 526,-547 434,-522.501 434,-522.501 434,-522.501 220.097,-479.661 121.144,-459.842"/>
<polygon fill="black" stroke="black" points="121.577,-456.36 111.084,-457.828 120.202,-463.223 121.577,-456.36"/>
<text text-anchor="middle" x="346" y="-523.499" font-family="Arial" font-size="10.00">Success: Verified +0 CR +1</text>
</g>
<!-- REVIEW -->
<g id="node9" class="node"><title>REVIEW</title>
<polygon fill="none" stroke="black" points="389.431,-468 302.569,-468 302.569,-432 389.431,-432 389.431,-468"/>
<text text-anchor="middle" x="346" y="-451.649" font-family="Arial" font-size="11.00">Human decide</text>
<text text-anchor="middle" x="346" y="-439" font-family="Arial" font-size="11.00">review score</text>
</g>
<!-- LINTED&#45;&gt;REVIEW -->
<g id="edge10" class="edge"><title>LINTED&#45;&gt;REVIEW</title>
<path fill="none" stroke="black" d="M111.697,-450C159.389,-450 239.564,-450 292.379,-450"/>
<polygon fill="black" stroke="black" points="292.559,-453.5 302.559,-450 292.559,-446.5 292.559,-453.5"/>
<text text-anchor="middle" x="200" y="-451.499" font-family="Arial" font-size="10.00">Review by human</text>
</g>
<!-- REVIEW&#45;&gt;LINTED -->
<g id="edge12" class="edge"><title>REVIEW&#45;&gt;LINTED</title>
<path fill="none" stroke="black" d="M302.292,-443.696C273.223,-439.405 240,-434.501 240,-434.501 240,-434.501 160,-434.501 160,-434.501 160,-434.501 141.251,-437.803 121.062,-441.359"/>
<polygon fill="black" stroke="black" points="120.352,-437.93 111.111,-443.112 121.566,-444.824 120.352,-437.93"/>
<text text-anchor="middle" x="200" y="-435.499" font-family="Arial" font-size="10.00">CR +1, 0, &#45;1 or &#45;2</text>
</g>
<!-- UNIT_TESTS -->
<g id="node12" class="node"><title>UNIT_TESTS</title>
<polygon fill="none" stroke="black" points="104.134,-280 37.8661,-280 37.8661,-244 104.134,-244 104.134,-280"/>
<text text-anchor="middle" x="71" y="-263.649" font-family="Arial" font-size="11.00">Unit tests</text>
<text text-anchor="middle" x="71" y="-251" font-family="Arial" font-size="11.00">performed</text>
</g>
<!-- REVIEW&#45;&gt;UNIT_TESTS -->
<g id="edge14" class="edge"><title>REVIEW&#45;&gt;UNIT_TESTS</title>
<path fill="none" stroke="black" d="M313.197,-431.95C260.303,-401.929 160,-345 160,-345 160,-345 124.36,-311.385 98.442,-286.94"/>
<polygon fill="black" stroke="black" points="100.771,-284.325 91.0947,-280.01 95.9679,-289.417 100.771,-284.325"/>
<text text-anchor="middle" x="200" y="-400.998" font-family="Arial" font-size="10.00">Human approved</text>
<text text-anchor="middle" x="200" y="-389.499" font-family="Arial" font-size="10.00">CR +2</text>
</g>
<!-- UNIT_TESTS&#45;&gt;LINTED -->
<g id="edge16" class="edge"><title>UNIT_TESTS&#45;&gt;LINTED</title>
<path fill="none" stroke="black" d="M71,-280.026C71,-307.192 71,-359.642 71,-399.129"/>
<polygon fill="black" stroke="black" points="67.5001,-399.377 71,-409.377 74.5001,-399.377 67.5001,-399.377"/>
<text text-anchor="middle" x="56.501" y="-346.213" font-family="Arial" font-size="10.00">Unit tests fail:</text>
<text text-anchor="middle" x="56.501" y="-334.713" font-family="Arial" font-size="10.00">Verified &#45;1, CR &#45;2</text>
</g>
<!-- WAIT_SUBMIT -->
<g id="node16" class="node"><title>WAIT_SUBMIT</title>
<ellipse fill="none" stroke="black" cx="346" cy="-338" rx="51.5373" ry="51.5373"/>
<text text-anchor="middle" x="346" y="-339.649" font-family="Arial" font-size="11.00">Awaiting</text>
<text text-anchor="middle" x="346" y="-327" font-family="Arial" font-size="11.00">Submission</text>
</g>
<!-- UNIT_TESTS&#45;&gt;WAIT_SUBMIT -->
<g id="edge18" class="edge"><title>UNIT_TESTS&#45;&gt;WAIT_SUBMIT</title>
<path fill="none" stroke="black" d="M104.119,-270.942C148.795,-283.379 230.475,-306.118 286.22,-321.636"/>
<polygon fill="black" stroke="black" points="285.394,-325.039 295.967,-324.35 287.272,-318.296 285.394,-325.039"/>
<text text-anchor="middle" x="200" y="-331.497" font-family="Arial" font-size="10.00">Unit tests pass:</text>
<text text-anchor="middle" x="200" y="-319.998" font-family="Arial" font-size="10.00">Verified +2</text>
<text text-anchor="middle" x="200" y="-308.499" font-family="Arial" font-size="10.00">CR 0</text>
</g>
<!-- PATCH_MERGED -->
<g id="node17" class="node"><title>PATCH_MERGED</title>
<polygon fill="pink" stroke="black" points="613.798,-294.798 560.202,-294.798 560.202,-241.202 613.798,-241.202 613.798,-294.798"/>
<polyline fill="none" stroke="black" points="572.202,-294.798 560.202,-282.798 "/>
<polyline fill="none" stroke="black" points="560.202,-253.202 572.202,-241.202 "/>
<polyline fill="none" stroke="black" points="601.798,-241.202 613.798,-253.202 "/>
<polyline fill="none" stroke="black" points="613.798,-282.798 601.798,-294.798 "/>
<text text-anchor="middle" x="587" y="-269.649" font-family="Arial" font-size="11.00">Patch</text>
<text text-anchor="middle" x="587" y="-257" font-family="Arial" font-size="11.00">merged</text>
</g>
<!-- UNIT_TESTS&#45;&gt;PATCH_MERGED -->
<g id="edge22" class="edge"><title>UNIT_TESTS&#45;&gt;PATCH_MERGED</title>
<path fill="none" stroke="black" d="M104.399,-258.604C157.689,-253.018 258,-242.503 258,-242.503 258,-242.503 434,-242.503 434,-242.503 434,-242.503 505.307,-254.464 550.241,-262.002"/>
<polygon fill="black" stroke="black" points="549.774,-265.472 560.215,-263.675 550.932,-258.569 549.774,-265.472"/>
<text text-anchor="middle" x="346" y="-267.497" font-family="Arial" font-size="10.00">Possible auto submission</text>
<text text-anchor="middle" x="346" y="-255.998" font-family="Arial" font-size="10.00">when using pipeline</text>
<text text-anchor="middle" x="346" y="-244.499" font-family="Arial" font-size="10.00">gate&#45;and&#45;submit</text>
</g>
<!-- WAIT_SUBMIT&#45;&gt;PATCH_MERGED -->
<g id="edge20" class="edge"><title>WAIT_SUBMIT&#45;&gt;PATCH_MERGED</title>
<path fill="none" stroke="black" d="M395.653,-323.75C441.578,-310.299 509.352,-290.449 550.421,-278.421"/>
<polygon fill="black" stroke="black" points="551.644,-281.709 560.257,-275.54 549.677,-274.992 551.644,-281.709"/>
<text text-anchor="middle" x="489" y="-309.499" font-family="Arial" font-size="10.00">Press [submit]</text>
</g>
<!-- REGRESSION_TESTS -->
<g id="node20" class="node"><title>REGRESSION_TESTS</title>
<polygon fill="none" stroke="black" points="121.481,-92.0971 20.5186,-92.0971 20.5186,-33.9029 121.481,-33.9029 121.481,-92.0971"/>
<text text-anchor="middle" x="71" y="-77.2979" font-family="Arial" font-size="11.00">Regression tests:</text>
<text text-anchor="middle" x="71" y="-64.6489" font-family="Arial" font-size="11.00">&#45;Unit tests</text>
<text text-anchor="middle" x="71" y="-52" font-family="Arial" font-size="11.00">&#45; Selenium</text>
<text text-anchor="middle" x="71" y="-39.3511" font-family="Arial" font-size="11.00">&#45; Testswarm</text>
</g>
<!-- PATCH_MERGED&#45;&gt;REGRESSION_TESTS -->
<g id="edge24" class="edge"><title>PATCH_MERGED&#45;&gt;REGRESSION_TESTS</title>
<path fill="none" stroke="black" d="M560.206,-256.823C543.944,-249.776 526,-242 526,-242 526,-242 258,-160 258,-160 258,-160 185.264,-122.068 130.762,-93.6446"/>
<polygon fill="black" stroke="black" points="132.33,-90.515 121.845,-88.9942 129.093,-96.7217 132.33,-90.515"/>
<text text-anchor="middle" x="346" y="-215.499" font-family="Arial" font-size="10.00">Notification to Jenkins</text>
</g>
<!-- SUCCESS -->
<g id="node22" class="node"><title>SUCCESS</title>
<ellipse fill="green" stroke="black" cx="346" cy="-105" rx="42.4028" ry="42.4028"/>
<ellipse fill="none" stroke="black" cx="346" cy="-105" rx="46.3984" ry="46.3984"/>
<text text-anchor="middle" x="346" y="-106.649" font-family="Arial" font-size="11.00">Patch</text>
<text text-anchor="middle" x="346" y="-94" font-family="Arial" font-size="11.00">validated</text>
</g>
<!-- REGRESSION_TESTS&#45;&gt;SUCCESS -->
<g id="edge26" class="edge"><title>REGRESSION_TESTS&#45;&gt;SUCCESS</title>
<path fill="none" stroke="black" d="M121.755,-70.6546C169.137,-77.9441 240.329,-88.8967 289.521,-96.4647"/>
<polygon fill="black" stroke="black" points="289.251,-99.9644 299.667,-98.0257 290.316,-93.0457 289.251,-99.9644"/>
<text text-anchor="middle" x="200" y="-89.499" font-family="Arial" font-size="10.00">All passed</text>
</g>
<!-- REGRESSION -->
<g id="node24" class="node"><title>REGRESSION</title>
<polygon fill="yellow" stroke="red" stroke-width="2" points="346,-40.7989 258.589,-9.60053 433.411,-9.60053 346,-40.7989"/>
<text text-anchor="middle" x="346" y="-15.3245" font-family="Arial" font-size="11.00">Regression</text>
</g>
<!-- REGRESSION_TESTS&#45;&gt;REGRESSION -->
<g id="edge28" class="edge"><title>REGRESSION_TESTS&#45;&gt;REGRESSION</title>
<path fill="none" stroke="black" d="M121.755,-55.1631C171.003,-47.4061 245.975,-35.5974 295.229,-27.8394"/>
<polygon fill="black" stroke="black" points="295.997,-31.2617 305.33,-26.2483 294.907,-24.347 295.997,-31.2617"/>
<text text-anchor="middle" x="200" y="-51.499" font-family="Arial" font-size="10.00">Some failure</text>
</g>
</g>
</svg>
