<?xml version="1.0" encoding="UTF-8" standalone="no"?>
<!DOCTYPE svg PUBLIC "-//W3C//DTD SVG 1.1//EN"
 "http://www.w3.org/Graphics/SVG/1.1/DTD/svg11.dtd">
<!-- Generated by graphviz version 2.28.0 (20121123.1352)
 -->
<!-- Title: ci_workflow Pages: 1 -->
<svg width="638pt" height="544pt"
 viewBox="0.00 0.00 638.00 544.00" xmlns="http://www.w3.org/2000/svg" xmlns:xlink="http://www.w3.org/1999/xlink">
<g id="graph1" class="graph" transform="scale(1 1) rotate(0) translate(4 540)">
<title>ci_workflow</title>
<polygon fill="white" stroke="white" points="-4,5 -4,-540 635,-540 635,5 -4,5"/>
<!-- START -->
<g id="node1" class="node"><title>START</title>
<polygon fill="none" stroke="black" points="71,-529.097 -0.0107426,-496 71,-462.903 142.011,-496 71,-529.097"/>
<polyline fill="none" stroke="black" points="10.8659,-501.069 10.8659,-490.931 "/>
<polyline fill="none" stroke="black" points="60.1234,-467.972 81.8766,-467.972 "/>
<polyline fill="none" stroke="black" points="131.134,-490.931 131.134,-501.069 "/>
<polyline fill="none" stroke="black" points="81.8766,-524.028 60.1234,-524.028 "/>
<text text-anchor="middle" x="71" y="-497.649" font-family="Arial" font-size="11.00">User writes</text>
<text text-anchor="middle" x="71" y="-485" font-family="Arial" font-size="11.00">a patch</text>
</g>
<!-- WAIT_LINT -->
<g id="node2" class="node"><title>WAIT_LINT</title>
<ellipse fill="none" stroke="black" cx="346" cy="-496" rx="40.6462" ry="40.6462"/>
<text text-anchor="middle" x="346" y="-497.649" font-family="Arial" font-size="11.00">Awaiting</text>
<text text-anchor="middle" x="346" y="-485" font-family="Arial" font-size="11.00">linting</text>
</g>
<!-- START&#45;&gt;WAIT_LINT -->
<g id="edge2" class="edge"><title>START&#45;&gt;WAIT_LINT</title>
<path fill="none" stroke="black" d="M142.304,-496C190.176,-496 252.38,-496 295.185,-496"/>
<polygon fill="black" stroke="black" points="295.358,-499.5 305.358,-496 295.358,-492.5 295.358,-499.5"/>
<text text-anchor="middle" x="200" y="-497.499" font-family="Arial" font-size="10.00">push to Gerrit</text>
</g>
<!-- LINT_CHECK -->
<g id="node5" class="node"><title>LINT_CHECK</title>
<polygon fill="none" stroke="black" points="630.012,-518.947 543.988,-518.947 543.988,-473.053 630.012,-473.053 630.012,-518.947"/>
<text text-anchor="middle" x="587" y="-503.973" font-family="Arial" font-size="11.00">linting</text>
<text text-anchor="middle" x="587" y="-491.324" font-family="Arial" font-size="11.00">+ checkstyle</text>
<text text-anchor="middle" x="587" y="-478.676" font-family="Arial" font-size="11.00">+ whitespaces</text>
</g>
<!-- WAIT_LINT&#45;&gt;LINT_CHECK -->
<g id="edge4" class="edge"><title>WAIT_LINT&#45;&gt;LINT_CHECK</title>
<path fill="none" stroke="black" d="M386.696,-496.378C416.43,-496.661 452,-497 452,-497 452,-497 526,-497 526,-497 526,-497 528.878,-496.952 533.372,-496.877"/>
<polygon fill="black" stroke="black" points="533.737,-500.372 543.677,-496.705 533.62,-493.373 533.737,-500.372"/>
<text text-anchor="middle" x="489" y="-498.499" font-family="Arial" font-size="10.00">Automatic check</text>
</g>
<!-- LINT_CHECK&#45;&gt;WAIT_LINT -->
<g id="edge6" class="edge"><title>LINT_CHECK&#45;&gt;WAIT_LINT</title>
<path fill="none" stroke="black" d="M543.677,-477.662C533.749,-473.36 526,-470.002 526,-470.002 526,-470.002 452,-470.002 452,-470.002 452,-470.002 423.023,-477.177 395.514,-483.988"/>
<polygon fill="black" stroke="black" points="394.368,-480.666 385.502,-486.467 396.05,-487.461 394.368,-480.666"/>
<text text-anchor="middle" x="489" y="-482.998" font-family="Arial" font-size="10.00">Fail:</text>
<text text-anchor="middle" x="489" y="-471.499" font-family="Arial" font-size="10.00">Verified &#45;1</text>
</g>
<!-- LINTED -->
<g id="node8" class="node"><title>LINTED</title>
<ellipse fill="none" stroke="black" cx="71" cy="-389" rx="40.6462" ry="40.6462"/>
<text text-anchor="middle" x="71" y="-390.649" font-family="Arial" font-size="11.00">Awaiting</text>
<text text-anchor="middle" x="71" y="-378" font-family="Arial" font-size="11.00">review</text>
</g>
<!-- LINT_CHECK&#45;&gt;LINTED -->
<g id="edge8" class="edge"><title>LINT_CHECK&#45;&gt;LINTED</title>
<path fill="none" stroke="black" d="M543.677,-474.839C533.749,-469.875 526,-466 526,-466 526,-466 434,-434.501 434,-434.501 434,-434.501 220.622,-407.681 121.508,-395.223"/>
<polygon fill="black" stroke="black" points="121.788,-391.731 111.429,-393.956 120.915,-398.676 121.788,-391.731"/>
<text text-anchor="middle" x="346" y="-435.499" font-family="Arial" font-size="10.00">Success: Verified +1</text>
</g>
<!-- REVIEW -->
<g id="node9" class="node"><title>REVIEW</title>
<polygon fill="none" stroke="black" points="389.431,-378 302.569,-378 302.569,-342 389.431,-342 389.431,-378"/>
<text text-anchor="middle" x="346" y="-361.649" font-family="Arial" font-size="11.00">Human decide</text>
<text text-anchor="middle" x="346" y="-349" font-family="Arial" font-size="11.00">review score</text>
</g>
<!-- LINTED&#45;&gt;REVIEW -->
<g id="edge10" class="edge"><title>LINTED&#45;&gt;REVIEW</title>
<path fill="none" stroke="black" d="M111.405,-384.814C159.025,-379.756 239.335,-371.225 292.259,-365.603"/>
<polygon fill="black" stroke="black" points="292.887,-369.056 302.461,-364.519 292.147,-362.095 292.887,-369.056"/>
<text text-anchor="middle" x="200" y="-380.499" font-family="Arial" font-size="10.00">Review by human</text>
</g>
<!-- REVIEW&#45;&gt;LINTED -->
<g id="edge12" class="edge"><title>REVIEW&#45;&gt;LINTED</title>
<path fill="none" stroke="black" d="M302.292,-358.984C273.223,-358.292 240,-357.501 240,-357.501 240,-357.501 160,-357.501 160,-357.501 160,-357.501 139.924,-364.687 118.951,-372.194"/>
<polygon fill="black" stroke="black" points="117.555,-368.976 109.32,-375.642 119.914,-375.567 117.555,-368.976"/>
<text text-anchor="middle" x="200" y="-358.499" font-family="Arial" font-size="10.00">CR +1, 0, &#45;1 or &#45;2</text>
</g>
<!-- UNIT_TESTS -->
<g id="node12" class="node"><title>UNIT_TESTS</title>
<polygon fill="none" stroke="black" points="104.134,-286 37.8661,-286 37.8661,-250 104.134,-250 104.134,-286"/>
<text text-anchor="middle" x="71" y="-269.649" font-family="Arial" font-size="11.00">Unit tests</text>
<text text-anchor="middle" x="71" y="-257" font-family="Arial" font-size="11.00">performed</text>
</g>
<!-- REVIEW&#45;&gt;UNIT_TESTS -->
<g id="edge14" class="edge"><title>REVIEW&#45;&gt;UNIT_TESTS</title>
<path fill="none" stroke="black" d="M302.557,-346.923C247.939,-330.095 160,-303 160,-303 160,-303 136.349,-293.594 113.57,-284.534"/>
<polygon fill="black" stroke="black" points="114.854,-281.278 104.268,-280.834 112.267,-287.782 114.854,-281.278"/>
<text text-anchor="middle" x="200" y="-327.499" font-family="Arial" font-size="10.00">CR +2</text>
</g>
<!-- UNIT_TESTS&#45;&gt;LINTED -->
<g id="edge16" class="edge"><title>UNIT_TESTS&#45;&gt;LINTED</title>
<path fill="none" stroke="black" d="M71,-286.115C71,-300.022 71,-319.932 71,-338.54"/>
<polygon fill="black" stroke="black" points="67.5001,-338.697 71,-348.697 74.5001,-338.697 67.5001,-338.697"/>
<text text-anchor="middle" x="62.2505" y="-312.963" font-family="Arial" font-size="10.00">Failure: V&#45;1, CR&#45;2</text>
</g>
<!-- WAIT_SUBMIT -->
<g id="node16" class="node"><title>WAIT_SUBMIT</title>
<ellipse fill="none" stroke="black" cx="346" cy="-268" rx="51.5373" ry="51.5373"/>
<text text-anchor="middle" x="346" y="-269.649" font-family="Arial" font-size="11.00">Awaiting</text>
<text text-anchor="middle" x="346" y="-257" font-family="Arial" font-size="11.00">Submission</text>
</g>
<!-- UNIT_TESTS&#45;&gt;WAIT_SUBMIT -->
<g id="edge18" class="edge"><title>UNIT_TESTS&#45;&gt;WAIT_SUBMIT</title>
<path fill="none" stroke="black" d="M104.119,-268C148.305,-268 228.686,-268 284.374,-268"/>
<polygon fill="black" stroke="black" points="284.471,-271.5 294.471,-268 284.471,-264.5 284.471,-271.5"/>
<text text-anchor="middle" x="200" y="-292.497" font-family="Arial" font-size="10.00">Success</text>
<text text-anchor="middle" x="200" y="-280.998" font-family="Arial" font-size="10.00">Verified+1</text>
<text text-anchor="middle" x="200" y="-269.499" font-family="Arial" font-size="10.00">CR+1</text>
</g>
<!-- PATCH_MERGED -->
<g id="node17" class="node"><title>PATCH_MERGED</title>
<polygon fill="none" stroke="black" points="613.798,-294.798 560.202,-294.798 560.202,-241.202 613.798,-241.202 613.798,-294.798"/>
<polyline fill="none" stroke="black" points="572.202,-294.798 560.202,-282.798 "/>
<polyline fill="none" stroke="black" points="560.202,-253.202 572.202,-241.202 "/>
<polyline fill="none" stroke="black" points="601.798,-241.202 613.798,-253.202 "/>
<polyline fill="none" stroke="black" points="613.798,-282.798 601.798,-294.798 "/>
<text text-anchor="middle" x="587" y="-269.649" font-family="Arial" font-size="11.00">Patch</text>
<text text-anchor="middle" x="587" y="-257" font-family="Arial" font-size="11.00">merged</text>
</g>
<!-- WAIT_SUBMIT&#45;&gt;PATCH_MERGED -->
<g id="edge20" class="edge"><title>WAIT_SUBMIT&#45;&gt;PATCH_MERGED</title>
<path fill="none" stroke="black" d="M397.686,-268C443.345,-268 509.337,-268 549.855,-268"/>
<polygon fill="black" stroke="black" points="550.075,-271.5 560.075,-268 550.075,-264.5 550.075,-271.5"/>
<text text-anchor="middle" x="489" y="-269.499" font-family="Arial" font-size="10.00">Press [submit]</text>
</g>
<!-- REGRESSION_TESTS -->
<g id="node19" class="node"><title>REGRESSION_TESTS</title>
<polygon fill="none" stroke="black" points="121.481,-92.0971 20.5186,-92.0971 20.5186,-33.9029 121.481,-33.9029 121.481,-92.0971"/>
<text text-anchor="middle" x="71" y="-77.2979" font-family="Arial" font-size="11.00">Regression tests:</text>
<text text-anchor="middle" x="71" y="-64.6489" font-family="Arial" font-size="11.00">&#45;Unit tests</text>
<text text-anchor="middle" x="71" y="-52" font-family="Arial" font-size="11.00">&#45; Selenium</text>
<text text-anchor="middle" x="71" y="-39.3511" font-family="Arial" font-size="11.00">&#45; Testswarm</text>
</g>
<!-- PATCH_MERGED&#45;&gt;REGRESSION_TESTS -->
<g id="edge22" class="edge"><title>PATCH_MERGED&#45;&gt;REGRESSION_TESTS</title>
<path fill="none" stroke="black" d="M560.215,-255.702C516.849,-235.017 434,-195.501 434,-195.501 434,-195.501 258,-160 258,-160 258,-160 185.264,-122.068 130.762,-93.6446"/>
<polygon fill="black" stroke="black" points="132.33,-90.515 121.845,-88.9942 129.093,-96.7217 132.33,-90.515"/>
<text text-anchor="middle" x="346" y="-197.499" font-family="Arial" font-size="10.00">Notification to Jenkins</text>
</g>
<!-- SUCCESS -->
<g id="node21" class="node"><title>SUCCESS</title>
<ellipse fill="green" stroke="black" cx="346" cy="-105" rx="42.4028" ry="42.4028"/>
<ellipse fill="none" stroke="black" cx="346" cy="-105" rx="46.3984" ry="46.3984"/>
<text text-anchor="middle" x="346" y="-106.649" font-family="Arial" font-size="11.00">Patch</text>
<text text-anchor="middle" x="346" y="-94" font-family="Arial" font-size="11.00">validated</text>
</g>
<!-- REGRESSION_TESTS&#45;&gt;SUCCESS -->
<g id="edge24" class="edge"><title>REGRESSION_TESTS&#45;&gt;SUCCESS</title>
<path fill="none" stroke="black" d="M121.755,-70.6546C169.137,-77.9441 240.329,-88.8967 289.521,-96.4647"/>
<polygon fill="black" stroke="black" points="289.251,-99.9644 299.667,-98.0257 290.316,-93.0457 289.251,-99.9644"/>
<text text-anchor="middle" x="200" y="-89.499" font-family="Arial" font-size="10.00">All passed</text>
</g>
<!-- REGRESSION -->
<g id="node23" class="node"><title>REGRESSION</title>
<polygon fill="yellow" stroke="red" stroke-width="2" points="346,-40.7989 258.589,-9.60053 433.411,-9.60053 346,-40.7989"/>
<text text-anchor="middle" x="346" y="-15.3245" font-family="Arial" font-size="11.00">Regression</text>
</g>
<!-- REGRESSION_TESTS&#45;&gt;REGRESSION -->
<g id="edge26" class="edge"><title>REGRESSION_TESTS&#45;&gt;REGRESSION</title>
<path fill="none" stroke="black" d="M121.755,-55.1631C171.003,-47.4061 245.975,-35.5974 295.229,-27.8394"/>
<polygon fill="black" stroke="black" points="295.997,-31.2617 305.33,-26.2483 294.907,-24.347 295.997,-31.2617"/>
<text text-anchor="middle" x="200" y="-51.499" font-family="Arial" font-size="10.00">Some failure</text>
</g>
</g>
</svg>
